<svg fill="#191970" version="1.1" id="Capa_1" xmlns="http://www.w3.org/2000/svg" xmlns:xlink="http://www.w3.org/1999/xlink" viewBox="0 0 956.199 956.199" xml:space="preserve" stroke="#191970" stroke-width="0.00956199" transform="matrix(-1, 0, 0, 1, 0, 0)"><g id="SVGRepo_bgCarrier" stroke-width="0"></g><g id="SVGRepo_tracerCarrier" stroke-linecap="round" stroke-linejoin="round" stroke="#CCCCCC" stroke-width="1.912398"></g><g id="SVGRepo_iconCarrier"> <g> <path d="M152.2,773.5c17.6,17.6,40.6,26.4,63.6,26.4s46.1-8.801,63.6-26.4l234.2-234.199C530.5,522.4,540,499.5,540,475.7 c0-23.899-9.5-46.8-26.4-63.6L284.4,182.7c-35.1-35.1-92.1-35.1-127.3,0c-35.1,35.1-35.1,92.1,0,127.3l165.6,165.6L152.2,646.199 C117,681.4,117,738.301,152.2,773.5z"></path> <path d="M740.399,956.199c49.7,0,90-40.299,90-90V90c0-49.7-40.3-90-90-90s-90,40.3-90,90v776.199 C650.399,915.9,690.699,956.199,740.399,956.199z"></path> </g> </g></svg>